<?xml version="1.0" standalone="no"?>
<!DOCTYPE svg PUBLIC "-//W3C//DTD SVG 20010904//EN"
 "http://www.w3.org/TR/2001/REC-SVG-20010904/DTD/svg10.dtd">
<svg version="1.0" xmlns="http://www.w3.org/2000/svg"
 width="1024.000000pt" height="1024.000000pt" viewBox="0 0 1024.000000 1024.000000"
 preserveAspectRatio="xMidYMid meet">

<g transform="translate(0.000000,1024.000000) scale(0.100000,-0.100000)"
fill="#000000" stroke="none">
<path d="M7309 8176 c-25 -7 -64 -23 -87 -37 -23 -13 -198 -175 -389 -359
-192 -185 -428 -412 -525 -505 -98 -93 -185 -184 -193 -201 -8 -18 -15 -49
-15 -71 -1 -36 -5 -42 -105 -121 l-105 -83 -52 15 c-192 55 -611 86 -898 67
-543 -36 -976 -146 -1406 -356 -559 -273 -907 -672 -880 -1010 29 -361 407
-598 1046 -656 181 -16 547 -6 746 20 414 56 828 183 1144 353 384 207 686
473 810 712 79 153 91 333 32 461 -32 68 -112 161 -169 196 -18 11 -33 24 -33
28 0 3 32 35 71 69 56 49 77 62 103 62 19 0 49 7 68 15 47 19 1044 823 1136
915 59 59 77 105 77 200 0 73 -4 92 -27 136 -44 83 -110 132 -206 153 -65 13
-84 13 -143 -3z m-2472 -1891 c181 -24 299 -45 458 -82 272 -64 374 -139 375
-273 1 -172 -272 -416 -627 -561 -288 -117 -616 -181 -943 -183 -176 -1 -255
9 -380 50 -188 61 -263 198 -191 346 49 103 309 377 467 495 262 194 501 253
841 208z"/>
<path d="M6441 5838 c-54 -111 -264 -340 -417 -455 -315 -238 -722 -429 -1144
-537 -601 -153 -1283 -141 -1715 31 -118 47 -199 87 -259 130 -56 40 -53 33
25 -62 174 -215 386 -361 651 -449 202 -68 393 -96 648 -96 465 -1 914 104
1308 305 443 224 743 546 872 933 28 85 62 233 56 240 -2 2 -13 -16 -25 -40z"/>
<path d="M1720 3964 c-51 -10 -126 -38 -160 -59 -134 -86 -178 -271 -94 -398
34 -52 114 -100 215 -130 46 -14 123 -37 171 -51 121 -37 160 -86 126 -161
-19 -41 -71 -67 -147 -73 -111 -8 -183 36 -200 121 l-7 32 -104 0 -105 0 -3
-33 c-2 -18 4 -56 12 -85 46 -156 227 -241 463 -217 202 21 329 143 327 315
-1 80 -18 126 -64 179 -52 58 -128 92 -325 142 -159 40 -213 103 -153 179 29
37 76 55 143 55 31 0 70 -6 89 -14 37 -16 76 -60 76 -87 0 -17 9 -19 104 -19
58 0 107 4 110 9 10 16 -24 125 -51 164 -33 47 -92 89 -158 112 -49 17 -215
29 -265 19z"/>
<path d="M4760 3440 l0 -520 105 0 105 0 0 120 0 120 33 36 32 35 102 -155
102 -156 126 0 126 0 -24 33 c-13 17 -81 117 -151 220 l-126 189 32 37 c18 21
81 92 141 159 59 67 107 124 107 127 0 3 -54 5 -119 5 l-120 0 -128 -150 -128
-150 -3 285 -2 285 -105 0 -105 0 0 -520z"/>
<path d="M5570 3440 l0 -520 110 0 110 0 0 248 c0 220 2 251 18 281 23 43 74
71 130 71 61 0 100 -24 123 -73 17 -38 19 -68 19 -284 l0 -243 106 0 106 0 -4
293 -3 292 -29 58 c-48 100 -140 145 -272 134 -69 -5 -137 -38 -172 -82 -11
-14 -21 -25 -23 -25 -2 0 -3 83 -1 185 l3 185 -111 0 -110 0 0 -520z"/>
<path d="M8038 3440 l-3 -520 108 0 107 0 0 123 0 123 35 34 c19 18 36 32 37
29 85 -130 203 -302 212 -305 7 -3 61 -3 120 -2 l107 3 -147 217 -146 217 28
34 c16 19 74 85 129 148 55 63 106 122 114 132 13 16 6 17 -105 17 l-119 0
-130 -152 -130 -152 -3 287 -2 287 -105 0 -105 0 -2 -520z"/>
<path d="M2636 3680 c-52 -20 -106 -65 -106 -87 0 -7 -5 -13 -11 -13 -7 0 -10
19 -7 53 l3 52 -102 3 -103 3 0 -386 0 -385 105 0 105 0 0 242 c0 223 2 245
20 284 27 55 73 78 146 72 64 -5 99 -32 114 -87 5 -20 10 -143 10 -273 l0
-238 106 0 106 0 -4 293 -3 292 -28 58 c-16 31 -44 69 -62 83 -72 54 -198 69
-289 34z"/>
<path d="M3367 3689 c-96 -23 -183 -99 -206 -182 -8 -26 -12 -49 -10 -51 2 -2
48 -6 102 -10 84 -6 97 -5 97 8 0 9 13 30 29 48 24 27 36 32 87 35 77 5 120
-19 130 -73 10 -54 -13 -69 -120 -77 -106 -9 -180 -24 -226 -47 -176 -90 -155
-349 35 -420 16 -6 64 -11 107 -12 86 0 152 24 187 68 18 23 42 33 40 17 -1
-5 -1 -23 0 -40 l1 -33 98 0 97 0 -3 262 c-2 145 -7 286 -13 315 -12 60 -53
121 -101 151 -73 45 -230 65 -331 41z m243 -457 c0 -100 -62 -162 -162 -162
-49 0 -63 4 -83 25 -31 30 -32 73 -5 108 23 29 55 41 153 58 37 6 70 15 73 20
12 20 24 -5 24 -49z"/>
<path d="M4204 3691 c-104 -27 -190 -99 -238 -201 -29 -61 -31 -72 -31 -185 0
-160 16 -208 99 -291 81 -81 146 -107 271 -107 69 0 104 6 147 22 99 38 177
135 194 240 l7 41 -106 0 -105 0 -6 -33 c-10 -52 -68 -97 -125 -97 -59 0 -110
29 -139 79 -24 41 -27 56 -27 141 0 79 4 102 22 137 43 80 118 109 196 75 44
-20 77 -61 77 -97 0 -12 16 -15 100 -15 100 0 100 0 100 25 0 91 -94 217 -185
249 -56 20 -203 30 -251 17z"/>
<path d="M6626 3684 c-110 -35 -173 -99 -191 -195 l-7 -36 69 -6 c120 -12 127
-10 140 23 36 96 220 92 239 -5 10 -56 -6 -65 -141 -81 -140 -16 -198 -33
-248 -75 -60 -49 -80 -99 -75 -185 4 -93 37 -144 118 -187 51 -27 61 -29 145
-25 98 5 140 20 187 70 l27 29 6 -46 7 -45 97 0 96 0 -3 272 c-3 306 -10 349
-69 417 -48 57 -121 83 -248 87 -72 3 -114 -1 -149 -12z m264 -452 c-1 -103
-69 -166 -174 -159 -66 4 -96 28 -96 76 0 60 47 93 160 110 41 7 79 16 84 21
17 17 26 -1 26 -48z"/>
<path d="M7479 3687 c-179 -51 -284 -220 -266 -432 12 -136 73 -242 172 -300
101 -59 266 -65 372 -13 86 42 157 136 178 236 l7 32 -99 0 -99 0 -18 -40
c-42 -96 -160 -120 -241 -49 -42 37 -57 88 -57 182 1 86 16 133 55 175 64 67
159 65 216 -6 17 -20 31 -45 31 -54 0 -16 11 -18 100 -18 l100 0 -6 28 c-27
123 -96 213 -189 246 -66 23 -197 30 -256 13z"/>
</g>
</svg>
